<svg xmlns="http://www.w3.org/2000/svg" xml:space="preserve" width="512" height="512" style="enable-background:new 0 0 512 512" viewBox="0 0 511.998 511.998">
  <g fill="none" stroke="#6177a4" stroke-linecap="round" stroke-linejoin="round" stroke-miterlimit="10" stroke-width="15">
    <path d="M270.309 397.17c-8.88-18.72-15.48-39.94-7.68-64.32m23.59 95.49c8.4 17.82 12.04 33.67.95 53.66-3.65 6.58-1.99 14.83 3.99 19.39 7.31 5.59 17.88 3.4 22.35-4.64 22.23-39.98 5.32-71.92-8.56-98.13-13.4-25.31-23.68-44.74-6.27-71.37m172.187-149.416 11.11 11.11c7.58 7.58 7.58 19.86 0 27.44l-25.84 25.83c-7.57 7.58-19.85 7.58-27.43 0l-11.11-11.11M264.047 77.565l-11.11-11.11c-7.57-7.58-7.57-19.86 0-27.44l25.84-25.83c7.57-7.58 19.86-7.58 27.43 0l11.12 11.12M447.339 150.04a47.812 47.812 0 0 1-13.43 26.14l-27.68 27.68c-18.76 18.75-49.17 18.75-67.93 0l-47-47c-18.76-18.76-18.76-49.17 0-67.93l27.68-27.68c18.76-18.76 49.17-18.76 67.93 0l47 47c2.6 2.6 4.84 5.43 6.72 8.42" data-original="#000000" style="stroke-width:15;stroke-linecap:round;stroke-linejoin:round;stroke-miterlimit:10"/>
    <path d="M252.99 157.483c-11.312-30.077-4.869-65.309 19.328-89.506l35.416-35.416c32.982-32.982 86.459-32.982 119.441 0l35.416 35.416c32.989 32.989 32.989 86.466.007 119.448l-35.416 35.416c-24.197 24.197-59.428 30.64-89.506 19.328" data-original="#000000" style="stroke-width:15;stroke-linecap:round;stroke-linejoin:round;stroke-miterlimit:10"/>
    <path d="m335.461 239.417-79.721-79.721c-6.333-6.333-16.602-6.333-22.936 0h0c-6.333 6.333-6.333 16.602 0 22.936l79.721 79.721c6.333 6.333 16.602 6.333 22.936 0h0c6.334-6.334 6.334-16.603 0-22.936zm-139.317 59.608 72.918-72.919" data-original="#000000" style="stroke-width:15;stroke-linecap:round;stroke-linejoin:round;stroke-miterlimit:10"/>
    <circle cx="266.693" cy="279.937" r="16.034" data-original="#000000" style="stroke-width:15;stroke-linecap:round;stroke-linejoin:round;stroke-miterlimit:10"/>
    <path d="m212.91 211.197 17.779 17.779m-32.922-2.637 17.779 17.779M57.966 292.28l19.527 53.193m44.988-85.257a22.94 22.94 0 0 1 5.652 8.685c4.449 12.123-1.773 25.535-13.889 29.978-12.109 4.449-25.521-1.758-29.978-13.875a22.567 22.567 0 0 1-1.189-4.791m119.8 156.978-53.193-19.526m85.261-44.984c-2.349-2.449-5.289-4.407-8.692-5.66-12.116-4.442-25.535 1.773-29.978 13.889-4.449 12.109 1.765 25.528 13.875 29.978a22.82 22.82 0 0 0 4.791 1.203" data-original="#000000" style="stroke-width:15;stroke-linecap:round;stroke-linejoin:round;stroke-miterlimit:10"/>
    <path d="m192.109 141.93 211.85 211.85c11.06 11.05 10.87 29.1-.56 39.92-11.02 10.43-28.5 9.77-39.23-.96l-72.65-72.65c-5.08-5.08-13.34-4.85-18.19.44a302.777 302.777 0 0 0-49.64 73.36l-20.81 43.3c9.11 9.82 12.51 24.28 7.55 37.71-1.44 3.88-5.78 5.84-9.67 4.42l-15.41-5.66-40.61-14.91c-4.93-1.81-7.47-7.28-5.65-12.21l11.97-32.61 26.13-71.2c5.67-15.43-9.33-30.43-24.77-24.76l-71.19 26.13-32.61 11.97c-4.93 1.81-10.4-.72-12.21-5.65l-14.91-40.61-5.66-15.41c-1.42-3.89.54-8.24 4.42-9.67 13.43-4.96 27.89-1.56 37.71 7.55l43.29-20.81a302.64 302.64 0 0 0 73.37-49.64c5.29-4.85 5.52-13.11.44-18.19l-73.06-73.06c-11.06-11.06-10.87-29.11.56-39.93 11.02-10.43 28.49-9.77 39.22.96l26.17 26.17m80.59 233.651L143.738 246.619m250.739 97.677-39.375 39.375M150.861 100.68l-39.375 39.375" data-original="#000000" style="stroke-width:15;stroke-linecap:round;stroke-linejoin:round;stroke-miterlimit:10"/>
    <path d="m93.721 185.92-23.391-9.952-9.952-23.391c-2.458-5.777-10.647-5.777-13.105 0l-9.952 23.391-23.391 9.952c-5.777 2.458-5.777 10.647 0 13.105l23.391 9.952 9.952 23.391c2.458 5.777 10.647 5.777 13.105 0l9.952-23.391 23.391-9.952c5.777-2.458 5.777-10.647 0-13.105zM498.07 309.31l-23.391-9.952-9.952-23.391c-2.458-5.777-10.647-5.777-13.105 0l-9.952 23.391-23.391 9.952c-5.777 2.458-5.777 10.647 0 13.105l23.391 9.952 9.952 23.391c2.458 5.777 10.647 5.777 13.105 0l9.952-23.391 23.391-9.952c5.777-2.458 5.777-10.647 0-13.105zM111.224 450.116l-23.391-9.952-9.952-23.391c-2.458-5.777-10.647-5.777-13.105 0l-9.952 23.391-23.391 9.952c-5.777 2.458-5.777 10.647 0 13.105l23.391 9.952 9.952 23.391c2.458 5.777 10.647 5.777 13.105 0l9.952-23.391 23.391-9.952c5.778-2.458 5.778-10.646 0-13.105z" data-original="#000000" style="stroke-width:15;stroke-linecap:round;stroke-linejoin:round;stroke-miterlimit:10"/>
  </g>
</svg>
