<svg xmlns="http://www.w3.org/2000/svg" xml:space="preserve" width="512" height="512" style="enable-background:new 0 0 512 512" viewBox="0 0 64 64">
  <path fill="#c80a50" d="M20 34h24v26H20zm24 0v26h6V40a6 6 0 0 0-6-6zm-30 6v20h6V34a6 6 0 0 0-6 6z" data-original="#c80a50"/>
  <path fill="#fab400" d="M24 34a8 8 0 0 0 16 0z" data-original="#fab400"/>
  <path fill="#f0c8a0" d="M26 34a6 6 0 1 0 12 0z" data-original="#f0c8a0"/>
  <path fill="#0a5078" d="M30 4h4c5.523 0 10 4.477 10 10v14a4 4 0 0 1-4 4H24a4 4 0 0 1-4-4V14c0-5.523 4.477-10 10-10z" data-original="#0a5078"/>
  <path fill="#d2aa82" d="M36 34h-8v-6h8z" data-original="#d2aa82"/>
  <path fill="#f0c8a0" d="M34 32h-4a8 8 0 0 1-8-8v-6a6 6 0 0 1 6-6h2a6 6 0 0 0 6 6h6v6a8 8 0 0 1-8 8z" data-original="#f0c8a0"/>
  <path fill="#d2aa82" d="M42 24v-6a2 2 0 0 1 2 2v2a2 2 0 0 1-2 2zm-20 0v-6a2 2 0 0 0-2 2v2a2 2 0 0 0 2 2z" data-original="#d2aa82"/>
  <path fill="#a00028" d="M21 60V44.5a.5.5 0 0 0-1 0V60zm23 0V44.5a.5.5 0 0 0-1 0V60z" data-original="#a00028"/>
</svg>
