<svg xmlns="http://www.w3.org/2000/svg" xml:space="preserve" width="512" height="512" style="enable-background:new 0 0 512 512" viewBox="0 0 64 64">
  <path fill="#01a0c8" d="M58 16H42v-6h10.93c.669 0 1.293.334 1.664.891z" data-original="#01a0c8"/>
  <path fill="#c80a50" d="M48 16H32v-6h10.93c.669 0 1.293.334 1.664.891z" data-original="#c80a50"/>
  <path fill="#01a0c8" d="M38 16H22v-6h10.93c.669 0 1.293.334 1.664.891z" data-original="#01a0c8"/>
  <path fill="#c80a50" d="M28 16H12v-6h10.93c.669 0 1.293.334 1.664.891z" data-original="#c80a50"/>
  <path fill="#fab400" d="M60 16v33c0 .55-.45 1-1 1H5c-.55 0-1-.45-1-1V10c0-1.1.9-2 2-2h6.93c.67 0 1.29.33 1.66.89l2.82 4.22c.37.56.99.89 1.66.89H58c1.1 0 2 .9 2 2z" data-original="#fab400"/>
  <path fill="#dc9600" d="M48 39c0 1.03-.1 2.03-.28 3H16.28c-.18-.97-.28-1.97-.28-3 0-8.84 7.16-16 16-16 8.79 0 16 7.07 16 16z" data-original="#dc9600"/>
  <path fill="#f0f0f0" d="M51.828 38h4a1 1 0 0 1 0 2h-4a1 1 0 0 1 0-2zm-1.535-3.707 2.828-2.828a.999.999 0 1 1 1.414 1.414l-2.828 2.828a.999.999 0 1 1-1.414-1.414zm1.414 8 2.828 2.828a.999.999 0 1 1-1.414 1.414l-2.828-2.828a.999.999 0 1 1 1.414-1.414zM12.172 40h-4a1 1 0 0 1 0-2h4a1 1 0 0 1 0 2zm1.535 3.707-2.828 2.828a.999.999 0 1 1-1.414-1.414l2.828-2.828a.999.999 0 1 1 1.414 1.414zm-1.414-8-2.828-2.828a.999.999 0 1 1 1.414-1.414l2.828 2.828a.999.999 0 1 1-1.414 1.414z" data-original="#f0f0f0"/>
  <circle cx="32" cy="40" r="16" fill="#01a0c8" data-original="#01a0c8"/>
  <circle cx="32" cy="40" r="12" fill="#00325a" data-original="#00325a"/>
  <circle cx="32" cy="36.75" r="4.75" fill="#f0c8a0" data-original="#f0c8a0"/>
  <path fill="#00325a" d="M40 19c0 .55-.45 1-1 1H25a1 1 0 0 1 0-2h14c.55 0 1 .45 1 1z" data-original="#00325a"/>
  <path fill="#c80a50" d="M40 47.5v1.44A12.015 12.015 0 0 1 32 52a11.95 11.95 0 0 1-8-3.08V47.5c0-3.31 2.69-6 6-6h4c3.31 0 6 2.69 6 6z" data-original="#c80a50"/>
</svg>
