<svg xmlns="http://www.w3.org/2000/svg" xml:space="preserve" width="512" height="512" style="enable-background:new 0 0 512 512" viewBox="0 0 511.994 511.994">
  <g fill="#6177a4">
    <path d="M175.175 441.666c-4.09-.602-7.909 2.229-8.513 6.327a223.282 223.282 0 0 0-2.374 32.901l.05 23.472a7.5 7.5 0 0 0 7.5 7.484h.016a7.5 7.5 0 0 0 7.484-7.516l-.05-23.472a208.48 208.48 0 0 1 2.214-30.685 7.5 7.5 0 0 0-6.327-8.511z" data-original="#000000"/>
    <path d="m496.973 342.108-73.31-27.254a7.501 7.501 0 0 0-5.33 14.022l32.478 12.347-3.581 9.839-6.853 18.828-71.526-31.642a22.923 22.923 0 0 1-10.113-8.705l-32.154-50.63a7.5 7.5 0 0 0-13.469 1.721l-5.9 18.315c-5.28 16.39-4.73 34.247 1.548 50.281l6.111 15.607c.447 1.143.016 2.042-.281 2.478-.296.435-.978 1.164-2.204 1.164h-49.924v-73.052c0-4.143-3.357-7.5-7.5-7.5s-7.5 3.357-7.5 7.5v73.052h-49.471c-1.227 0-1.907-.729-2.204-1.165-.297-.435-.728-1.335-.279-2.478l6.109-15.579c6.295-16.051 6.847-33.928 1.555-50.337l-5.904-18.31a7.5 7.5 0 0 0-13.468-1.719l-32.395 51.008a22.962 22.962 0 0 1-9.578 8.461l-70.284 33.26-10.436-28.673 64.696-26.793a17.648 17.648 0 0 0 9.118-8.576l44.021-90.214c5.015-10.274 16.58-15.272 27.498-11.882l20.913 6.494c4.148 8.063 11.444 13.781 20.11 15.886v33.182c0 4.143 3.357 7.5 7.5 7.5s7.5-3.357 7.5-7.5v-33.181c8.662-2.104 15.957-7.819 20.106-15.876l21.388-6.582c10.899-3.352 22.441 1.651 27.442 11.9l43.974 90.119a17.606 17.606 0 0 0 9.598 8.767l.724.275c.878.334 1.78.492 2.667.492a7.501 7.501 0 0 0 2.669-14.512l-.728-.276a2.66 2.66 0 0 1-1.449-1.324l-43.974-90.119c-8.262-16.932-27.329-25.202-45.335-19.658l-15.931 4.902-1.863-17.336c14.227-13.03 23.484-35.163 23.484-55.188 0-13.018-3.905-24.375-11.345-33.159 2.008-11.323-.983-22.859-8.296-31.78-7.499-9.146-18.582-14.393-30.409-14.393s-22.91 5.246-30.408 14.392c-7.313 8.92-10.305 20.456-8.298 31.782-7.439 8.784-11.344 20.141-11.344 33.159 0 20.002 9.237 42.106 23.436 55.142l-2.126 17.398-15.557-4.83c-18.041-5.603-37.143 2.655-45.426 19.63l-44.021 90.215a2.654 2.654 0 0 1-1.376 1.294l-105.06 41.742C3.19 348.341-2.924 361.454 1.377 373.272a22.656 22.656 0 0 0 11.794 12.87 22.724 22.724 0 0 0 9.625 2.149c2.63 0 5.269-.461 7.814-1.388l26.961-9.813.784 2.153a12.615 12.615 0 0 0 7.044 7.335c1.53.629 3.156.941 4.78.941a12.58 12.58 0 0 0 5.385-1.207l72.68-34.394a37.943 37.943 0 0 0 15.825-13.979l23.828-37.52c4.928 12.903 5.191 29.826-.243 43.36l-6.109 15.579a17.654 17.654 0 0 0 6.488 21.041 223.239 223.239 0 0 0-13.247 32.454 7.5 7.5 0 1 0 14.293 4.55 208.11 208.11 0 0 1 14.233-33.927H306.6c15.798 29.941 24.112 63.506 24.04 97.383l-.05 23.472a7.5 7.5 0 0 0 7.484 7.516h.016a7.5 7.5 0 0 0 7.5-7.484l.05-23.472c.074-34.766-8.075-69.234-23.625-100.274a17.658 17.658 0 0 0 4.968-4.849 17.657 17.657 0 0 0 1.857-16.401l-6.111-15.607c-5.25-12.949-5.336-29.591-.238-43.315l23.586 37.138a37.88 37.88 0 0 0 16.707 14.382l73.891 32.688a12.634 12.634 0 0 0 10.023.068 12.632 12.632 0 0 0 6.893-7.273l.832-2.285 26.962 9.813a22.813 22.813 0 0 0 7.815 1.388c3.285 0 6.559-.72 9.624-2.149a22.662 22.662 0 0 0 11.794-12.87c4.301-11.818-1.815-24.931-13.645-29.237zM255.186 88.33c14.048 0 28.19 7.047 33.17 22.455-10.171-6.157-23.302-6.995-32.987-6.995-14.445 0-25.447 2.327-33.376 7.062 4.96-15.455 19.125-22.522 33.193-22.522zm0-29.214a24.237 24.237 0 0 1 18.809 8.902 24.28 24.28 0 0 1 5.058 10.708c-7.113-3.523-15.258-5.396-23.866-5.396-8.609 0-16.755 1.873-23.867 5.397a24.27 24.27 0 0 1 5.059-10.709 24.227 24.227 0 0 1 18.807-8.902zm-33.131 78.598c.168-4.939 1.587-8.716 4.359-11.492 4.926-4.932 14.668-7.433 28.955-7.433 14.226 0 23.517 2.38 28.405 7.274 2.892 2.896 4.323 6.912 4.39 12.246-4.984 18.745-18.341 36.706-32.978 36.706-14.792.001-28.274-18.342-33.131-37.301zm33.131 52.302c4.316 0 8.482-.847 12.446-2.379l1.833 17.066c-3.146 6.646-9.43 9.063-14.501 9.063-5.06 0-11.326-2.407-14.479-9.018l2.098-17.167c4.011 1.57 8.23 2.435 12.603 2.435zM25.479 372.808a7.75 7.75 0 0 1-5.97-.261 7.751 7.751 0 0 1-4.037-4.406 7.75 7.75 0 0 1 .261-5.97 7.743 7.743 0 0 1 4.393-4.033l26.992-9.771 5.324 14.629zm471.042-6.593a7.751 7.751 0 0 1-4.037 4.406 7.741 7.741 0 0 1-5.97.261l-26.963-9.812 5.324-14.628 26.979 9.767c4.047 1.472 6.14 5.961 4.667 10.006z" data-original="#000000"/>
    <path d="M285.518 252.296c-4.143 0-7.5 3.357-7.5 7.5s3.357 7.5 7.5 7.5h15.047c4.143 0 7.5-3.357 7.5-7.5s-3.357-7.5-7.5-7.5zM20.794 73.871a7.503 7.503 0 0 0 8.635-6.16c.926-5.535 3.008-10.547 6.188-14.896 5.792-7.916 14.714-12.94 24.675-14.553-.297 11.184 2.277 22.641 8.592 32.162-6.147 7.453-14.65 21.247-13.577 39.628-8.15-3.109-15.18-8.045-19.781-14.449a7.5 7.5 0 1 0-12.182 8.752c8.006 11.143 20.909 18.938 35.372 22.424 4.554 12.899 13.855 25.505 29.664 30.985 5.211 1.807 10.636 2.669 16.014 2.668 15.801 0 31.184-7.441 39.469-20.214 2.583-3.986 10.615-18.181 5.49-33.465-2.511-7.485-7.154-12.569-12.893-16.347 3.688-7.43 5.938-14.559 7.276-19.923 6.706 3.114 12.951 7.524 18.36 13.002 2.911 2.947 7.66 2.976 10.606.065s2.977-7.659.065-10.606c-7.7-7.797-16.812-13.857-26.632-17.75.905-11.906.392-31.953-15.229-44.796-17.404-14.307-45.451-13.54-60.021 1.64-3.083 3.212-5.422 6.87-7.118 10.786-16.061.984-30.951 8.416-40.257 21.135-4.575 6.255-7.562 13.414-8.877 21.277a7.502 7.502 0 0 0 6.161 8.635zm49.999 39.718c-2.616-10.689 3.474-26.668 8.486-32.105 9.016 6.926 19.833 10.411 29.775 13.614a362.24 362.24 0 0 1 5.448 1.793c-5.351 6.172-12.426 11.509-21.759 14.439-7.08 2.222-14.625 2.912-21.95 2.259zm19.815-42.452c13.547-8.198 29.65-6.926 38.838-5.18-1.07 4.635-3.017 11.218-6.421 18.018-3.081-1.128-6.236-2.145-9.371-3.154-8.369-2.698-16.454-5.304-23.046-9.684zm44.523 40.386c3.068 9.15-2.674 18.713-3.854 20.534-7.337 11.31-24.024 16.376-37.983 11.535-8.076-2.8-13.553-8.488-17.135-14.757 7.085-.011 14.225-1.043 21.079-3.195 14.143-4.44 24.214-12.983 31.358-22.434 3.163 2.186 5.357 4.806 6.535 8.317zm-34.013-96.356c7.25 0 14.724 2.266 20.264 6.82 9.11 7.489 10.338 19.797 9.975 29.039-12.654-2.319-33.495-3.338-51.254 9.022-3.414-6.056-5.282-14.101-4.758-21.652 2.759.485 5.52 1.22 8.244 2.224a7.5 7.5 0 0 0 5.19-14.074 62.508 62.508 0 0 0-8.49-2.456c3.887-5.179 11.968-8.888 20.829-8.923zm259.35 67.381a7.465 7.465 0 0 0 4.817 1.755 7.481 7.481 0 0 0 5.749-2.679l38.595-45.996a7.5 7.5 0 0 0-.924-10.566 7.498 7.498 0 0 0-10.566.924l-38.595 45.996a7.501 7.501 0 0 0 .924 10.566zm49.322-21.05a7.5 7.5 0 0 0 11.492 9.64c.37-.441.77-.856 1.19-1.236 4.835-4.362 12.246-4.136 16.872.519 4.178 4.202 4.677 10.982 1.159 15.771a12.274 12.274 0 0 1-11.499 4.902c-10.314-1.366-20.324 2.396-26.77 10.076l-3.266 3.892a7.5 7.5 0 0 0 .924 10.566 7.465 7.465 0 0 0 4.817 1.755 7.481 7.481 0 0 0 5.749-2.679l3.266-3.892c3.128-3.728 8.102-5.54 13.304-4.85a27.26 27.26 0 0 0 25.564-10.893c7.851-10.688 6.728-25.833-2.611-35.226-10.274-10.337-26.771-10.812-37.555-1.082a27.733 27.733 0 0 0-2.636 2.737zm-61.151 42.671c4.143 0 7.5-3.357 7.5-7.5s-3.357-7.5-7.5-7.5h-.01c-4.142 0-7.495 3.357-7.495 7.5s3.364 7.5 7.505 7.5zm39.415 18.081c-4.142 0-7.495 3.357-7.495 7.5s3.363 7.5 7.505 7.5c4.143 0 7.5-3.357 7.5-7.5s-3.357-7.5-7.5-7.5z" data-original="#000000"/>
  </g>
</svg>
