<svg xmlns="http://www.w3.org/2000/svg" xml:space="preserve" width="512" height="512" style="enable-background:new 0 0 512 512" viewBox="0 0 64 64">
  <g fill="#6177a4">
    <path d="m62.222 56.025-18.108-4.116a3.978 3.978 0 0 1-3.114-3.9v-5.47a12.332 12.332 0 0 0 3.831-7.282l.036-.257H46a1 1 0 0 0 .976-.783l2-9A.988.988 0 0 0 49 25v-6.471a14.029 14.029 0 0 0 4.438-5.169l.456-.912a1 1 0 0 0-.126-1.087l-.193-.232A23.842 23.842 0 0 0 40.959 3.21l-8.716-2.18a.995.995 0 0 0-.485 0l-8.716 2.179a23.842 23.842 0 0 0-12.616 7.919l-.193.232a1 1 0 0 0-.126 1.087l.456.912a14.013 14.013 0 0 0 4.438 5.169V25c0 .073.008.146.024.217l2 9c.1.457.506.783.975.783h1.133l.037.257a12.332 12.332 0 0 0 3.831 7.282v5.47c0 1.88-1.28 3.484-3.114 3.9L1.778 56.025A1 1 0 0 0 1 57v6h2v-2.125l12.396-1.653A3.008 3.008 0 0 0 18 56.249v-1.86l1.668-.379 4.508 6.557a1.002 1.002 0 0 0 1.475.192l1.989-1.705 2.653 2.653A.997.997 0 0 0 31 62h2c.265 0 .52-.105.707-.293l2.653-2.653 1.989 1.705a.999.999 0 0 0 1.475-.192l4.508-6.557 1.668.379v1.86a3.01 3.01 0 0 0 2.604 2.974L61 60.876V63h2v-6a1 1 0 0 0-.778-.975zM54 56.207v1.717l-2-.267v-1.905zm-13.917-33.54a49.547 49.547 0 0 0-16.166 0L17 23.82v-4.973l7.246-1.207a47.53 47.53 0 0 1 15.508 0L47 18.847v4.973zm1.604 2.295A5.721 5.721 0 0 1 38.395 26h-12.79a5.727 5.727 0 0 1-3.293-1.038l1.933-.322a47.53 47.53 0 0 1 15.508 0zM12.351 12.465l-.162-.324A21.852 21.852 0 0 1 23.527 5.15L32 3.031l8.473 2.119a21.852 21.852 0 0 1 11.338 6.991l-.162.324a12.01 12.01 0 0 1-3.896 4.48l-7.67-1.278a49.547 49.547 0 0 0-16.166 0l-7.67 1.278a12 12 0 0 1-3.896-4.48zm8.798 22.509-.159-1.115A1 1 0 0 0 20 33h-1.198l-1.597-7.187 2.602-.434A7.715 7.715 0 0 0 25.605 28h12.789a7.714 7.714 0 0 0 5.798-2.621l2.602.434L45.198 33H44a1 1 0 0 0-.99.859l-.159 1.115a10.346 10.346 0 0 1-5.615 7.79c-3.235 1.618-7.236 1.618-10.472 0a10.348 10.348 0 0 1-5.615-7.79zm4.721 9.579C27.764 45.5 29.883 46 32 46s4.236-.5 6.13-1.447c.302-.151.584-.33.87-.503v3.459l-7 5.242-7-5.242V44.05c.286.173.568.352.87.503zM12 55.753v1.905l-2 .267v-1.717zm-9 2.045 5-1.136v1.529l-5 .667zm13-1.549c0 .499-.373.925-.868.991L14 57.391v-2.093l2-.455zm9.194 2.268-3.538-5.146a5.928 5.928 0 0 0 3.061-3.575l5.685 4.258zM32.586 60h-1.172l-2.251-2.251L32 55.317l2.837 2.432zm6.22-1.483-5.208-4.464 5.685-4.258a5.925 5.925 0 0 0 3.061 3.575zM48 56.249v-1.406l2 .455v2.093l-1.132-.151a1.003 1.003 0 0 1-.868-.991zm8 1.942v-1.529l5 1.136v1.059z" data-original="#000000"/>
    <path d="m31.544 14.917.213.053a.998.998 0 0 0 .486 0l.213-.053A5.992 5.992 0 0 0 37 9.096V6a1 1 0 0 0-1-1h-8a1 1 0 0 0-1 1v3.096a5.992 5.992 0 0 0 4.544 5.821zM29 7h6v2.096a3.994 3.994 0 0 1-3 3.873 3.994 3.994 0 0 1-3-3.873z" data-original="#000000"/>
  </g>
</svg>
