<svg xmlns="http://www.w3.org/2000/svg" xml:space="preserve" width="512" height="512" style="enable-background:new 0 0 512 512" viewBox="0 0 64 64">
  <g fill="#86099a" data-name="Layer 9">
    <path d="M51.6 8H54V6h-5a1 1 0 0 0-1 1v5h2V9.28a29 29 0 0 1-31.53 48.38l-.94 1.76A31 31 0 0 0 51.6 8ZM14 54.73A29 29 0 0 1 45.53 6.34l.94-1.76A31 31 0 0 0 12.4 56H10v2h5a1 1 0 0 0 1-1v-5h-2Z" data-original="#000000"/>
    <path d="M9 32A23 23 0 1 0 32 9 23 23 0 0 0 9 32Zm44 0a21 21 0 1 1-21-21 21 21 0 0 1 21 21Z" data-original="#000000"/>
    <path d="M13 32a19 19 0 1 0 19-19 19 19 0 0 0-19 19Zm29.71-9.29 2-2A16.92 16.92 0 0 1 49 31h-3v2h3a16.92 16.92 0 0 1-4.26 10.27l-2-2-1.42 1.42 2 2A16.92 16.92 0 0 1 33 49v-3h-2v3a16.92 16.92 0 0 1-10.27-4.26l2-2-1.42-1.42-2 2A16.92 16.92 0 0 1 15.05 33H18v-2h-2.95a16.92 16.92 0 0 1 4.26-10.27l2 2 1.42-1.42-2-2A16.92 16.92 0 0 1 31 15.05V18h2v-2.95a16.92 16.92 0 0 1 10.27 4.26l-2 2Z" data-original="#000000"/>
    <path d="M33 20h-2v12a1 1 0 0 0 .29.71l6 6 1.42-1.42-5.71-5.7Z" data-original="#000000"/>
  </g>
</svg>
