<svg xmlns="http://www.w3.org/2000/svg" xml:space="preserve" width="512" height="512" style="enable-background:new 0 0 512 512" viewBox="0 0 24 24">
  <linearGradient id="a" x1="12" x2="12" y1="7" y2="21" gradientUnits="userSpaceOnUse">
    <stop offset="0" stop-color="#eef0f1"/>
    <stop offset="1" stop-color="#fff"/>
  </linearGradient>
  <rect width="12" height="4" x="3.5" y="2.5" fill="#fff" stroke="#66abdd" data-original="#ffffff" rx=".5"/>
  <path fill="#516574" d="M13.106 4.894a.15.15 0 0 1-.212 0l-.638-.638A.15.15 0 0 1 12.362 4h1.276c.134 0 .2.162.106.256z" data-original="#516574"/>
  <rect width="18" height="14" x="3" y="8" fill="#303c45" data-original="#303c45" opacity=".2" rx="1"/>
  <rect width="18" height="14" x="3" y="7" fill="url(#a)" data-original="url(#a)" rx="1"/>
  <path fill="#fff" d="M4 8h16v12H4z" data-original="#ffffff"/>
  <rect width="5" height="1" x="5" y="4" fill="#b9c1c7" data-original="#b9c1c7" rx=".5"/>
  <rect width="2" height="1" x="5" y="12" fill="#dce0e3" data-original="#dce0e3" rx=".5"/>
  <rect width="2" height="1" x="8" y="12" fill="#dce0e3" data-original="#dce0e3" rx=".5"/>
  <rect width="2" height="1" x="11" y="12" fill="#dce0e3" data-original="#dce0e3" rx=".5"/>
  <rect width="6" height="1" x="9" y="9" fill="#73838f" data-original="#73838f" rx=".5"/>
  <rect width="2" height="1" x="14" y="12" fill="#dce0e3" data-original="#dce0e3" rx=".5"/>
  <rect width="2" height="1" x="17" y="12" fill="#dce0e3" data-original="#dce0e3" rx=".5"/>
  <rect width="2" height="1" x="5" y="14" fill="#dce0e3" data-original="#dce0e3" rx=".5"/>
  <rect width="2" height="1" x="8" y="14" fill="#dce0e3" data-original="#dce0e3" rx=".5"/>
  <rect width="2" height="1" x="11" y="14" fill="#dce0e3" data-original="#dce0e3" rx=".5"/>
  <rect width="2" height="1" x="14" y="14" fill="#66abdd" data-original="#66abdd" rx=".5"/>
  <g fill="#dce0e3">
    <rect width="2" height="1" x="17" y="14" data-original="#dce0e3" rx=".5"/>
    <rect width="2" height="1" x="5" y="16" data-original="#dce0e3" rx=".5"/>
    <rect width="2" height="1" x="8" y="16" data-original="#dce0e3" rx=".5"/>
    <rect width="2" height="1" x="11" y="16" data-original="#dce0e3" rx=".5"/>
    <rect width="2" height="1" x="14" y="16" data-original="#dce0e3" rx=".5"/>
    <rect width="2" height="1" x="17" y="16" data-original="#dce0e3" rx=".5"/>
    <rect width="2" height="1" x="5" y="18" data-original="#dce0e3" rx=".5"/>
    <rect width="2" height="1" x="8" y="18" data-original="#dce0e3" rx=".5"/>
    <rect width="2" height="1" x="11" y="18" data-original="#dce0e3" rx=".5"/>
    <rect width="2" height="1" x="14" y="18" data-original="#dce0e3" rx=".5"/>
    <rect width="2" height="1" x="17" y="18" data-original="#dce0e3" rx=".5"/>
  </g>
  <path fill="#96a2ab" d="M18.894 9.894a.15.15 0 0 1 0 .212l-.638.638a.15.15 0 0 1-.256-.106V9.362c0-.133.162-.2.256-.106zm-13.788.212a.15.15 0 0 1 0-.212l.638-.638A.15.15 0 0 1 6 9.362v1.276a.15.15 0 0 1-.256.106z" data-original="#96a2ab"/>
</svg>
