<svg xmlns="http://www.w3.org/2000/svg" xml:space="preserve" width="512" height="512" style="enable-background:new 0 0 512 512" viewBox="0 0 24 24">
  <rect width="17" height="13" x="3.5" y="5.5" fill="#fff" stroke="#cce3f4" data-original="#ffffff" rx="1.5"/>
  <path fill="#303c45" d="M8.976 14.532v-3.11c-.58.444-.969.666-1.17.666a.353.353 0 0 1-.256-.113.378.378 0 0 1-.11-.267c0-.116.037-.201.11-.256.073-.055.202-.125.387-.212a2.87 2.87 0 0 0 .66-.41c.166-.144.313-.304.44-.482.128-.178.21-.287.25-.328s.111-.061.218-.061a.35.35 0 0 1 .29.14c.074.093.11.222.11.386v3.913c0 .458-.156.687-.468.687-.139 0-.25-.046-.335-.14s-.126-.231-.126-.413z" data-original="#303c45"/>
  <path fill="#516574" d="M15.788 9.212a.3.3 0 0 1 .424 0l1.276 1.276a.3.3 0 0 1-.212.512h-2.552a.3.3 0 0 1-.212-.512zm.424 5.576a.3.3 0 0 1-.424 0l-1.276-1.276a.3.3 0 0 1 .212-.512h2.552a.3.3 0 0 1 .212.512z" data-original="#516574"/>
</svg>
