<svg xmlns="http://www.w3.org/2000/svg" xml:space="preserve" width="512" height="512" style="enable-background:new 0 0 512 512">
  <g fill="#6177a4">
    <path d="M491.512 399.668h-70.884V141.447a11.49 11.49 0 0 0-3.959-8.681l-11.28-9.791 9.962-6.403a11.45 11.45 0 0 0 5.277-9.668V50.955c0-28.094-22.028-50.95-49.104-50.95H209.528c-4.14 0-7.496 3.355-7.496 7.496s3.356 7.496 7.496 7.496h161.996c16.759 0 30.725 12.811 33.572 29.629h-39.211a7.495 7.495 0 0 0-7.496 7.496 7.495 7.495 0 0 0 7.496 7.496h39.752v9.215h-25.658a7.495 7.495 0 0 0-7.496 7.496 7.495 7.495 0 0 0 7.496 7.496h25.658v21.174l-12.283 7.895a11.397 11.397 0 0 0-5.247 8.844 11.393 11.393 0 0 0 3.93 9.503l13.6 11.805V399.67H212.866c-7.99 0-14.492 6.501-14.492 14.492v41.668c0 22.524-17.266 40.872-38.595 41.166-25.132-.295-45.503-21.875-45.513-48.373l-.015-40.207h45.009c4.14 0 7.496-3.355 7.496-7.496s-3.356-7.496-7.496-7.496h-45.015l-.004-11.993h19.778a7.495 7.495 0 0 0 7.496-7.496 7.495 7.495 0 0 0-7.496-7.496h-19.784l-.046-125.892 13.372-14.266a11.468 11.468 0 0 0 1.692-13.385l-15.061-27.473V56.177c0-.056-.004-.111-.004-.167v-1.906c0-15.369-6.453-29.251-16.779-39.109l64.979-.003a7.496 7.496 0 1 0 0-14.992L60.091.005l-.041.002C30.241.031 5.997 24.289 5.997 54.104v10.343a7.495 7.495 0 0 0 7.496 7.496 7.495 7.495 0 0 0 7.496-7.496V54.104c0-21.564 17.543-39.106 39.106-39.106.653 0 1.302.018 1.947.049 9.648.497 18.675 4.676 25.591 11.889 7.424 7.763 11.525 18.083 11.567 29.073v81.645H20.988V110.42a7.495 7.495 0 0 0-7.496-7.496 7.495 7.495 0 0 0-7.496 7.496v27.733c0 7.99 6.501 14.492 14.492 14.492h78.716v34.698c0 1.26.317 2.499.922 3.603l14.766 26.933-12.582 13.423a11.45 11.45 0 0 0-3.11 7.865l.076 209.46c.012 34.291 26.379 62.289 59.15 63.323.275.031.554.049.836.049h293.429c29.397 0 53.312-24.829 53.312-55.346V414.16c0-7.991-6.501-14.492-14.491-14.492zm-.5 56.986c0 22.252-17.191 40.355-38.321 40.355h-256.67c10.662-10.266 17.344-24.928 17.344-41.18V414.66h277.646v41.994z" data-original="#000000"/>
    <path d="M331.777 123.757H196.212c-4.14 0-7.496 3.355-7.496 7.496s3.356 7.496 7.496 7.496h135.566a7.496 7.496 0 1 0-.001-14.992zm-72.219 44.796h-89.125a7.496 7.496 0 1 0 0 14.992h89.125c4.14 0 7.496-3.355 7.496-7.496s-3.356-7.496-7.496-7.496zm97.999 0h-66.785c-4.14 0-7.496 3.355-7.496 7.496s3.356 7.496 7.496 7.496h66.784c4.14 0 7.496-3.355 7.496-7.496s-3.355-7.496-7.495-7.496zm-150.349 28.983h-36.776a7.495 7.495 0 0 0-7.496 7.496 7.495 7.495 0 0 0 7.496 7.496h36.776a7.495 7.495 0 0 0 7.496-7.496 7.495 7.495 0 0 0-7.496-7.496zm150.349 0h-44.59a7.495 7.495 0 0 0-7.496 7.496 7.495 7.495 0 0 0 7.496 7.496h44.59a7.495 7.495 0 0 0 7.496-7.496 7.495 7.495 0 0 0-7.496-7.496zm-133.538 28.983h-53.587c-4.14 0-7.496 3.355-7.496 7.496s3.356 7.496 7.496 7.496h53.587c4.14 0 7.496-3.355 7.496-7.496s-3.356-7.496-7.496-7.496zm133.538 0H256.001c-4.14 0-7.496 3.355-7.496 7.496s3.356 7.496 7.496 7.496h101.556c4.14 0 7.496-3.355 7.496-7.496s-3.356-7.496-7.496-7.496zM188.82 255.502h-18.387a7.495 7.495 0 0 0-7.496 7.496 7.495 7.495 0 0 0 7.496 7.496h18.387a7.496 7.496 0 1 0 0-14.992zm168.737 0h-44.59a7.495 7.495 0 0 0-7.496 7.496 7.495 7.495 0 0 0 7.496 7.496h44.59a7.495 7.495 0 0 0 7.496-7.496 7.495 7.495 0 0 0-7.496-7.496zm-97.999 28.984h-89.125c-4.14 0-7.496 3.355-7.496 7.496s3.356 7.496 7.496 7.496h89.125c4.14 0 7.496-3.355 7.496-7.496s-3.356-7.496-7.496-7.496zm97.999 0h-66.785c-4.14 0-7.496 3.355-7.496 7.496s3.356 7.496 7.496 7.496h66.784c4.14 0 7.496-3.355 7.496-7.496s-3.355-7.496-7.495-7.496zm-150.349 28.983h-36.776c-4.14 0-7.496 3.355-7.496 7.496s3.356 7.496 7.496 7.496h36.776c4.14 0 7.496-3.355 7.496-7.496s-3.356-7.496-7.496-7.496zm150.349 0H245.388c-4.14 0-7.496 3.355-7.496 7.496s3.356 7.496 7.496 7.496h112.169c4.14 0 7.496-3.355 7.496-7.496s-3.356-7.496-7.496-7.496zm-71.238-115.933h-49.706a7.495 7.495 0 0 0-7.496 7.496 7.495 7.495 0 0 0 7.496 7.496h49.706a7.497 7.497 0 0 0 0-14.992zm-10.537 57.966h-60.786a7.496 7.496 0 1 0 0 14.992h60.786a7.497 7.497 0 0 0 0-14.992z" data-original="#000000"/>
  </g>
</svg>
