<svg xmlns="http://www.w3.org/2000/svg" xml:space="preserve" width="512" height="512" style="enable-background:new 0 0 512 512" viewBox="0 0 378.038 378.038">
  <circle cx="189.019" cy="189.019" r="189.019" fill="#feed50" data-original="#feed50"/>
  <path fill="#fa1016" d="M48.146 63.006h281.746C295.282 24.341 244.996 0 189.019 0S82.756 24.341 48.146 63.006z" data-original="#fa1016"/>
  <path fill="#fb8b31" d="M10.771 126.013h356.497c-8.299-23.478-21.101-44.826-37.375-63.006H48.146c-16.274 18.18-29.076 39.527-37.375 63.006z" data-original="#fb8b31"/>
  <path fill="#1b802a" d="M10.771 252.025h356.497c6.967-19.709 10.771-40.912 10.771-63.006H0c0 22.094 3.804 43.297 10.771 63.006z" data-original="#1b802a"/>
  <path fill="#0852f5" d="M48.146 315.031h281.746c16.274-18.18 29.076-39.528 37.375-63.006H10.771c8.299 23.479 21.101 44.826 37.375 63.006z" data-original="#0852f5"/>
  <path fill="#8c0784" d="M329.892 315.031H48.146c34.61 38.666 84.896 63.006 140.873 63.006 55.977.001 106.263-24.34 140.873-63.006z" data-original="#8c0784"/>
</svg>
